<mxfile host="Electron" modified="2024-05-22T21:17:03.808Z" agent="Mozilla/5.0 (Windows NT 10.0; Win64; x64) AppleWebKit/537.36 (KHTML, like Gecko) draw.io/24.2.5 Chrome/120.0.6099.109 Electron/28.1.0 Safari/537.36" etag="kBunqsprWoLSmsASh-nH" version="24.2.5" type="device">
  <diagram name="第 1 页" id="7PkcJVvyq62dC2KK6pxb">
    <mxGraphModel dx="1250" dy="727" grid="1" gridSize="10" guides="1" tooltips="1" connect="1" arrows="1" fold="1" page="1" pageScale="1" pageWidth="3300" pageHeight="4681" math="0" shadow="0">
      <root>
        <mxCell id="0" />
        <mxCell id="1" parent="0" />
        <mxCell id="TVYeR8XJReJx2JZ5ncmn-13" style="edgeStyle=orthogonalEdgeStyle;rounded=0;orthogonalLoop=1;jettySize=auto;html=1;exitX=1;exitY=0.25;exitDx=0;exitDy=0;entryX=0;entryY=0.25;entryDx=0;entryDy=0;fontSize=10;" edge="1" parent="1" source="TVYeR8XJReJx2JZ5ncmn-122" target="TVYeR8XJReJx2JZ5ncmn-123">
          <mxGeometry relative="1" as="geometry">
            <mxPoint x="800" y="699.94" as="sourcePoint" />
            <mxPoint x="940.0000000000043" y="699.94" as="targetPoint" />
            <Array as="points" />
          </mxGeometry>
        </mxCell>
        <mxCell id="TVYeR8XJReJx2JZ5ncmn-10" value="有新数据&lt;br style=&quot;font-size: 10px;&quot;&gt;可发送" style="endArrow=classic;html=1;rounded=0;entryX=0.25;entryY=1;entryDx=0;entryDy=0;exitX=0.25;exitY=0;exitDx=0;exitDy=0;fontSize=10;" edge="1" parent="1" source="TVYeR8XJReJx2JZ5ncmn-99" target="TVYeR8XJReJx2JZ5ncmn-97">
          <mxGeometry width="50" height="50" relative="1" as="geometry">
            <mxPoint x="931.1557287525443" y="805.7978643762722" as="sourcePoint" />
            <mxPoint x="931.1557287525443" y="714.0821356237282" as="targetPoint" />
          </mxGeometry>
        </mxCell>
        <mxCell id="TVYeR8XJReJx2JZ5ncmn-11" value="无数据可发送&lt;br style=&quot;font-size: 10px;&quot;&gt;数据包未终止" style="endArrow=classic;html=1;rounded=0;exitX=0.75;exitY=1;exitDx=0;exitDy=0;entryX=0.75;entryY=0;entryDx=0;entryDy=0;fontSize=10;" edge="1" parent="1" source="TVYeR8XJReJx2JZ5ncmn-97" target="TVYeR8XJReJx2JZ5ncmn-99">
          <mxGeometry x="0.0015" y="40" width="50" height="50" relative="1" as="geometry">
            <mxPoint x="987.7242712474556" y="714.0821356237279" as="sourcePoint" />
            <mxPoint x="987.7242712474556" y="805.7978643762726" as="targetPoint" />
            <mxPoint as="offset" />
          </mxGeometry>
        </mxCell>
        <mxCell id="TVYeR8XJReJx2JZ5ncmn-21" value="wr_vld拉高" style="endArrow=classic;html=1;rounded=0;entryX=0;entryY=0.5;entryDx=0;entryDy=0;fontSize=10;exitX=1;exitY=0.5;exitDx=0;exitDy=0;" edge="1" parent="1" source="TVYeR8XJReJx2JZ5ncmn-85">
          <mxGeometry width="50" height="50" relative="1" as="geometry">
            <mxPoint x="490" y="600" as="sourcePoint" />
            <mxPoint x="560.0000000000043" y="580" as="targetPoint" />
            <Array as="points">
              <mxPoint x="510" y="580" />
            </Array>
            <mxPoint as="offset" />
          </mxGeometry>
        </mxCell>
        <mxCell id="TVYeR8XJReJx2JZ5ncmn-27" value="" style="endArrow=classic;html=1;rounded=0;exitX=0;exitY=0.5;exitDx=0;exitDy=0;entryX=1;entryY=0.5;entryDx=0;entryDy=0;fontSize=10;" edge="1" parent="1" source="TVYeR8XJReJx2JZ5ncmn-91" target="TVYeR8XJReJx2JZ5ncmn-92">
          <mxGeometry width="50" height="50" relative="1" as="geometry">
            <mxPoint x="560.0000000000043" y="700" as="sourcePoint" />
            <mxPoint x="480" y="700" as="targetPoint" />
          </mxGeometry>
        </mxCell>
        <mxCell id="TVYeR8XJReJx2JZ5ncmn-132" value="wr_eop拉高" style="edgeLabel;html=1;align=center;verticalAlign=middle;resizable=0;points=[];fontSize=10;" vertex="1" connectable="0" parent="TVYeR8XJReJx2JZ5ncmn-27">
          <mxGeometry x="-0.0028" y="-1" relative="1" as="geometry">
            <mxPoint y="1" as="offset" />
          </mxGeometry>
        </mxCell>
        <mxCell id="TVYeR8XJReJx2JZ5ncmn-28" value="wr_sop拉高" style="endArrow=classic;html=1;rounded=0;exitX=0.5;exitY=0;exitDx=0;exitDy=0;entryX=0.5;entryY=1;entryDx=0;entryDy=0;fontSize=10;" edge="1" parent="1" source="TVYeR8XJReJx2JZ5ncmn-92" target="TVYeR8XJReJx2JZ5ncmn-85">
          <mxGeometry width="50" height="50" relative="1" as="geometry">
            <mxPoint x="440" y="680" as="sourcePoint" />
            <mxPoint x="440" y="600" as="targetPoint" />
          </mxGeometry>
        </mxCell>
        <mxCell id="TVYeR8XJReJx2JZ5ncmn-30" value="仍有数据可发送" style="edgeStyle=orthogonalEdgeStyle;rounded=0;orthogonalLoop=1;jettySize=auto;html=1;exitX=0.5;exitY=0;exitDx=0;exitDy=0;entryX=1;entryY=0.5;entryDx=0;entryDy=0;fontSize=10;" edge="1" parent="1" source="TVYeR8XJReJx2JZ5ncmn-97" target="TVYeR8XJReJx2JZ5ncmn-97">
          <mxGeometry x="-0.3638" relative="1" as="geometry">
            <mxPoint x="959.44" y="679.94" as="sourcePoint" />
            <mxPoint x="999.4399999999955" y="699.94" as="targetPoint" />
            <Array as="points">
              <mxPoint x="959.44" y="660" />
              <mxPoint x="1059.44" y="660" />
              <mxPoint x="1059.44" y="700" />
            </Array>
            <mxPoint as="offset" />
          </mxGeometry>
        </mxCell>
        <mxCell id="TVYeR8XJReJx2JZ5ncmn-44" value="缓冲区写满" style="edgeStyle=orthogonalEdgeStyle;rounded=0;orthogonalLoop=1;jettySize=auto;html=1;dashed=1;dashPattern=8 8;entryX=0;entryY=0.5;entryDx=0;entryDy=0;exitX=0.25;exitY=0;exitDx=0;exitDy=0;fontSize=10;" edge="1" parent="1" source="TVYeR8XJReJx2JZ5ncmn-87" target="TVYeR8XJReJx2JZ5ncmn-89">
          <mxGeometry x="0.2222" relative="1" as="geometry">
            <mxPoint x="760" y="480" as="targetPoint" />
            <mxPoint x="620" y="510" as="sourcePoint" />
            <mxPoint as="offset" />
          </mxGeometry>
        </mxCell>
        <mxCell id="TVYeR8XJReJx2JZ5ncmn-85" value="" style="rounded=1;whiteSpace=wrap;html=1;fontSize=10;" vertex="1" parent="1">
          <mxGeometry x="400" y="560" width="80" height="40" as="geometry" />
        </mxCell>
        <mxCell id="TVYeR8XJReJx2JZ5ncmn-128" style="edgeStyle=orthogonalEdgeStyle;rounded=0;orthogonalLoop=1;jettySize=auto;html=1;exitX=0.5;exitY=0;exitDx=0;exitDy=0;entryX=1;entryY=0.25;entryDx=0;entryDy=0;fontSize=10;" edge="1" parent="1" source="TVYeR8XJReJx2JZ5ncmn-87" target="TVYeR8XJReJx2JZ5ncmn-110">
          <mxGeometry relative="1" as="geometry">
            <Array as="points">
              <mxPoint x="600" y="540" />
              <mxPoint x="700" y="540" />
              <mxPoint x="700" y="570" />
            </Array>
          </mxGeometry>
        </mxCell>
        <mxCell id="TVYeR8XJReJx2JZ5ncmn-129" value="数据包未写入结束" style="edgeLabel;html=1;align=center;verticalAlign=middle;resizable=0;points=[];fontSize=10;" vertex="1" connectable="0" parent="TVYeR8XJReJx2JZ5ncmn-128">
          <mxGeometry x="-0.1626" relative="1" as="geometry">
            <mxPoint x="-18" as="offset" />
          </mxGeometry>
        </mxCell>
        <mxCell id="TVYeR8XJReJx2JZ5ncmn-87" value="" style="rounded=1;whiteSpace=wrap;html=1;fontSize=10;" vertex="1" parent="1">
          <mxGeometry x="560" y="560" width="80" height="40" as="geometry" />
        </mxCell>
        <mxCell id="TVYeR8XJReJx2JZ5ncmn-89" value="&lt;span style=&quot;font-size: 10px;&quot;&gt;拉高pause&lt;/span&gt;" style="rounded=1;whiteSpace=wrap;html=1;fontSize=10;" vertex="1" parent="1">
          <mxGeometry x="720" y="490" width="80" height="40" as="geometry" />
        </mxCell>
        <mxCell id="TVYeR8XJReJx2JZ5ncmn-91" value="" style="rounded=1;whiteSpace=wrap;html=1;fontSize=10;" vertex="1" parent="1">
          <mxGeometry x="560" y="680" width="80" height="40" as="geometry" />
        </mxCell>
        <mxCell id="TVYeR8XJReJx2JZ5ncmn-92" value="" style="rounded=1;whiteSpace=wrap;html=1;fontSize=10;" vertex="1" parent="1">
          <mxGeometry x="400" y="680" width="80" height="40" as="geometry" />
        </mxCell>
        <mxCell id="TVYeR8XJReJx2JZ5ncmn-94" value="" style="rounded=1;whiteSpace=wrap;html=1;fontSize=10;" vertex="1" parent="1">
          <mxGeometry x="720" y="679.94" width="80" height="40" as="geometry" />
        </mxCell>
        <mxCell id="TVYeR8XJReJx2JZ5ncmn-97" value="" style="rounded=1;whiteSpace=wrap;html=1;fontSize=10;" vertex="1" parent="1">
          <mxGeometry x="919.44" y="679.94" width="80" height="40" as="geometry" />
        </mxCell>
        <mxCell id="TVYeR8XJReJx2JZ5ncmn-99" value="" style="rounded=1;whiteSpace=wrap;html=1;fontSize=10;" vertex="1" parent="1">
          <mxGeometry x="919.44" y="799.94" width="80" height="40" as="geometry" />
        </mxCell>
        <mxCell id="TVYeR8XJReJx2JZ5ncmn-104" value="&lt;span style=&quot;font-size: 10px;&quot;&gt;新数据包&lt;/span&gt;&lt;br style=&quot;font-size: 10px;&quot;&gt;&lt;span style=&quot;font-size: 10px;&quot;&gt;写入缓冲&lt;/span&gt;" style="rounded=1;whiteSpace=wrap;html=1;fontSize=10;" vertex="1" parent="1">
          <mxGeometry x="400" y="560" width="60" height="40" as="geometry" />
        </mxCell>
        <mxCell id="TVYeR8XJReJx2JZ5ncmn-105" value="1" style="rounded=1;whiteSpace=wrap;html=1;fontSize=10;" vertex="1" parent="1">
          <mxGeometry x="460" y="560" width="20" height="40" as="geometry" />
        </mxCell>
        <mxCell id="TVYeR8XJReJx2JZ5ncmn-106" value="&lt;span style=&quot;font-size: 10px;&quot;&gt;无新数据包&lt;/span&gt;&lt;br style=&quot;font-size: 10px;&quot;&gt;&lt;span style=&quot;font-size: 10px;&quot;&gt;写入缓冲&lt;/span&gt;" style="rounded=1;whiteSpace=wrap;html=1;fontSize=10;" vertex="1" parent="1">
          <mxGeometry x="400" y="680" width="60" height="40" as="geometry" />
        </mxCell>
        <mxCell id="TVYeR8XJReJx2JZ5ncmn-107" value="0" style="rounded=1;whiteSpace=wrap;html=1;fontSize=10;" vertex="1" parent="1">
          <mxGeometry x="460" y="680" width="20" height="40" as="geometry" />
        </mxCell>
        <mxCell id="TVYeR8XJReJx2JZ5ncmn-116" value="" style="edgeStyle=orthogonalEdgeStyle;rounded=0;orthogonalLoop=1;jettySize=auto;html=1;exitX=0.5;exitY=1;exitDx=0;exitDy=0;fontSize=10;" edge="1" parent="1" source="TVYeR8XJReJx2JZ5ncmn-87" target="TVYeR8XJReJx2JZ5ncmn-91">
          <mxGeometry relative="1" as="geometry">
            <mxPoint x="600" y="620" as="sourcePoint" />
          </mxGeometry>
        </mxCell>
        <mxCell id="TVYeR8XJReJx2JZ5ncmn-131" value="已写入所有半字" style="edgeLabel;html=1;align=center;verticalAlign=middle;resizable=0;points=[];fontSize=10;" vertex="1" connectable="0" parent="TVYeR8XJReJx2JZ5ncmn-116">
          <mxGeometry x="-0.0583" y="-2" relative="1" as="geometry">
            <mxPoint x="2" y="2" as="offset" />
          </mxGeometry>
        </mxCell>
        <mxCell id="TVYeR8XJReJx2JZ5ncmn-109" value="&lt;span style=&quot;font-size: 10px;&quot;&gt;持续写入&lt;/span&gt;&lt;br style=&quot;font-size: 10px;&quot;&gt;&lt;span style=&quot;font-size: 10px;&quot;&gt;数据&lt;/span&gt;" style="rounded=1;whiteSpace=wrap;html=1;fontSize=10;" vertex="1" parent="1">
          <mxGeometry x="560" y="560" width="60" height="40" as="geometry" />
        </mxCell>
        <mxCell id="TVYeR8XJReJx2JZ5ncmn-119" style="edgeStyle=orthogonalEdgeStyle;rounded=0;orthogonalLoop=1;jettySize=auto;html=1;exitX=1;exitY=0.75;exitDx=0;exitDy=0;dashed=1;dashPattern=8 8;fontSize=10;" edge="1" parent="1" source="TVYeR8XJReJx2JZ5ncmn-110">
          <mxGeometry relative="1" as="geometry">
            <mxPoint x="860" y="680" as="targetPoint" />
            <Array as="points">
              <mxPoint x="860" y="590" />
            </Array>
          </mxGeometry>
        </mxCell>
        <mxCell id="TVYeR8XJReJx2JZ5ncmn-120" value="匹配完成" style="edgeLabel;html=1;align=center;verticalAlign=middle;resizable=0;points=[];fontSize=10;" vertex="1" connectable="0" parent="TVYeR8XJReJx2JZ5ncmn-119">
          <mxGeometry x="0.2006" y="1" relative="1" as="geometry">
            <mxPoint x="-80" y="1" as="offset" />
          </mxGeometry>
        </mxCell>
        <mxCell id="TVYeR8XJReJx2JZ5ncmn-110" value="2" style="rounded=1;whiteSpace=wrap;html=1;fontSize=10;" vertex="1" parent="1">
          <mxGeometry x="620" y="560" width="20" height="40" as="geometry" />
        </mxCell>
        <mxCell id="TVYeR8XJReJx2JZ5ncmn-117" value="&lt;span style=&quot;font-size: 10px;&quot;&gt;当前数据包&lt;br style=&quot;font-size: 10px;&quot;&gt;写入结束&lt;/span&gt;" style="rounded=1;whiteSpace=wrap;html=1;fontSize=10;" vertex="1" parent="1">
          <mxGeometry x="560" y="680" width="60" height="40" as="geometry" />
        </mxCell>
        <mxCell id="TVYeR8XJReJx2JZ5ncmn-118" value="3" style="rounded=1;whiteSpace=wrap;html=1;fontSize=10;" vertex="1" parent="1">
          <mxGeometry x="620" y="680" width="20" height="40" as="geometry" />
        </mxCell>
        <mxCell id="TVYeR8XJReJx2JZ5ncmn-121" value="未发送" style="rounded=1;whiteSpace=wrap;html=1;fontSize=10;" vertex="1" parent="1">
          <mxGeometry x="720" y="680" width="60" height="40" as="geometry" />
        </mxCell>
        <mxCell id="TVYeR8XJReJx2JZ5ncmn-122" value="0" style="rounded=1;whiteSpace=wrap;html=1;fontSize=10;" vertex="1" parent="1">
          <mxGeometry x="780" y="679.94" width="20" height="40" as="geometry" />
        </mxCell>
        <mxCell id="TVYeR8XJReJx2JZ5ncmn-127" style="edgeStyle=orthogonalEdgeStyle;rounded=0;orthogonalLoop=1;jettySize=auto;html=1;exitX=0;exitY=0.75;exitDx=0;exitDy=0;entryX=1;entryY=0.75;entryDx=0;entryDy=0;fontSize=10;" edge="1" parent="1" source="TVYeR8XJReJx2JZ5ncmn-123" target="TVYeR8XJReJx2JZ5ncmn-122">
          <mxGeometry relative="1" as="geometry" />
        </mxCell>
        <mxCell id="TVYeR8XJReJx2JZ5ncmn-130" value="数据包发送完毕" style="edgeLabel;html=1;align=center;verticalAlign=middle;resizable=0;points=[];fontSize=10;" vertex="1" connectable="0" parent="TVYeR8XJReJx2JZ5ncmn-127">
          <mxGeometry x="-0.0166" y="1" relative="1" as="geometry">
            <mxPoint as="offset" />
          </mxGeometry>
        </mxCell>
        <mxCell id="TVYeR8XJReJx2JZ5ncmn-123" value="发送中" style="rounded=1;whiteSpace=wrap;html=1;fontSize=10;" vertex="1" parent="1">
          <mxGeometry x="919.44" y="680" width="60" height="40" as="geometry" />
        </mxCell>
        <mxCell id="TVYeR8XJReJx2JZ5ncmn-124" value="1" style="rounded=1;whiteSpace=wrap;html=1;fontSize=10;" vertex="1" parent="1">
          <mxGeometry x="979.44" y="679.94" width="20" height="40" as="geometry" />
        </mxCell>
        <mxCell id="TVYeR8XJReJx2JZ5ncmn-125" value="发送暂停" style="rounded=1;whiteSpace=wrap;html=1;fontSize=10;" vertex="1" parent="1">
          <mxGeometry x="919.44" y="799.94" width="60" height="40" as="geometry" />
        </mxCell>
        <mxCell id="TVYeR8XJReJx2JZ5ncmn-126" value="2" style="rounded=1;whiteSpace=wrap;html=1;fontSize=10;" vertex="1" parent="1">
          <mxGeometry x="979.44" y="799.94" width="20" height="40" as="geometry" />
        </mxCell>
      </root>
    </mxGraphModel>
  </diagram>
</mxfile>
